<svg width="62" height="54" viewBox="0 0 62 54" fill="none" xmlns="http://www.w3.org/2000/svg">
<g clip-path="url(#clip0_169_49)">
<path fill-rule="evenodd" clip-rule="evenodd" d="M58.8997 11.8979H52.6997C50.9874 11.8979 49.5997 13.2176 49.5997 14.8414C49.5997 16.4682 50.9874 17.7879 52.6997 17.7879H58.8997C60.6121 17.7879 61.9997 16.4682 61.9997 14.8414C61.9997 13.2176 60.6121 11.8979 58.8997 11.8979ZM11.9451 20.6606C10.9678 19.7335 11.6587 17.7879 13.0404 17.7879H28.9626C30.675 17.7879 32.0626 16.4682 32.0626 14.8414C32.0626 13.2176 30.675 11.8979 28.9626 11.8979H13.0493C11.6646 11.8979 10.9737 10.6697 11.951 9.74267L17.1619 4.84172C18.3724 3.69029 18.3724 1.97791 17.1619 0.826483C15.9514 -0.324946 13.9881 -0.248184 12.7747 0.900292L2.91668 10.3095L1.81249 11.3812C1.24013 11.915 0.783713 12.5608 0.471646 13.2784C0.159578 13.9961 -0.00146484 14.7704 -0.00146484 15.553C-0.00146484 16.3356 0.159578 17.1098 0.471646 17.8275C0.783713 18.5452 1.24013 19.191 1.81249 19.7247L12.7776 30.1613C13.3686 30.7203 14.1494 31.0346 14.9628 31.0412C15.7762 31.0478 16.562 30.7461 17.1619 30.1968C18.3724 29.0453 18.3724 26.9432 17.1619 25.7918L11.9451 20.6606ZM60.7184 38.5313L59.691 49.0064C59.1094 51.761 56.5644 53.1338 53.6091 53.1338H38.6228C37.6013 53.1338 36.6594 53.2667 36.0837 52.4695L29.3995 40.9021C28.997 40.3441 28.8131 39.6578 28.8828 38.9732C28.9524 38.2887 29.2708 37.6535 29.7774 37.188C31.1237 35.9096 33.4089 36.0927 34.5013 37.5718L37.1997 41.0852V16.0637C37.1985 15.6722 37.2755 15.2843 37.4263 14.923C37.5771 14.5617 37.7986 14.2341 38.0777 13.9596C38.3569 13.6851 38.6882 13.4691 39.052 13.3245C39.4159 13.1798 39.8049 13.1094 40.1964 13.1172C42.3989 13.1172 43.196 15.0186 43.196 16.0637L43.2167 30.9201L56.6028 32.0922C59.5699 33.0281 61.3325 35.6203 60.7184 38.5313Z" fill="#949574"/>
</g>
<defs>
<clipPath id="clip0_169_49">
<rect width="62" height="53.1429" fill="white"/>
</clipPath>
</defs>
</svg>
